<?xml version="1.0" standalone="no"?><!DOCTYPE svg PUBLIC "-//W3C//DTD SVG 1.1//EN" "http://www.w3.org/Graphics/SVG/1.1/DTD/svg11.dtd"><svg t="1637053396075" class="icon" viewBox="0 0 1024 1024" version="1.1" xmlns="http://www.w3.org/2000/svg" p-id="4176" xmlns:xlink="http://www.w3.org/1999/xlink" width="200" height="200"><defs><style type="text/css"></style></defs><path d="M494.133333 0h34.72c85.76 4.426667 169.866667 38.346667 233.386667 96.373333C838.88 164.906667 884.64 266.24 885.333333 369.066667v21.493333c-4.16 74.24-29.6 147.413333-74.666666 206.72-36.32 48.693333-84.906667 87.626667-139.466667 114.08 52 89.866667 103.626667 179.84 155.413333 269.813333-24.746667 14.186667-49.333333 28.533333-74.026666 42.773334-54.88-94.88-109.226667-190.026667-164.213334-284.853334-51.626667 10.186667-105.013333 9.813333-156.533333-0.746666-54.4 93.92-108.586667 187.946667-162.88 281.973333-24.693333-14.24-49.386667-28.48-74.026667-42.773333 51.786667-89.066667 103.146667-178.453333 154.666667-267.68-72.96-35.893333-134.24-95.253333-170.773333-168.053334C154.88 495.2 142.186667 443.413333 138.666667 391.253333v-22.133333c0.64-105.333333 48.693333-209.013333 128.586666-277.6C329.813333 36.586667 411.146667 4.693333 494.133333 0m-32.32 89.76c-72.746667 12.746667-139.84 54.826667-182.933333 114.773333-42.026667 57.386667-61.28 130.72-53.013333 201.333334 8.426667 78.133333 51.093333 151.573333 114.186666 198.346666 57.813333 43.466667 132.48 63.733333 204.32 55.253334 79.52-8.48 154.186667-52.48 200.8-117.333334 43.146667-58.826667 62.186667-134.506667 52.266667-206.773333-11.733333-92.8-72.16-177.813333-156.106667-219.093333-54.826667-28.213333-118.933333-37.226667-179.52-26.506667z" p-id="4177"></path><path d="M488.693333 281.6c11.626667-0.266667 23.2-0.48 34.826667-0.586667 42.186667 9.866667 79.84 47.306667 78.08 92.586667 1.973333 42.24-31.733333 77.6-69.546667 91.146667-12.16 1.653333-24.426667 2.026667-36.64 0.96-10.933333-3.146667-21.76-6.506667-32.48-10.346667-22.186667-17.813333-44.106667-40.96-45.173333-71.093333-6.4-44.906667 27.84-89.333333 70.773333-99.893334l0.16-2.773333z" p-id="4178"></path></svg>