<?xml version="1.0" standalone="no"?><!DOCTYPE svg PUBLIC "-//W3C//DTD SVG 1.1//EN" "http://www.w3.org/Graphics/SVG/1.1/DTD/svg11.dtd"><svg t="1637051896685" class="icon" viewBox="0 0 1024 1024" version="1.1" xmlns="http://www.w3.org/2000/svg" p-id="2502" xmlns:xlink="http://www.w3.org/1999/xlink" width="200" height="200"><defs><style type="text/css"></style></defs><path d="M962.78260906 278.26086969c-16.6956525-8.34782625-33.39130406-8.34782625-45.91304344 0l-208.6956525 121.04347781V278.26086969c0-41.73913031-33.39130406-75.13043437-75.13043531-75.13043532H111.3043475c-41.73913031 0-75.13043437 33.39130406-75.13043437 75.13043532v467.47826062c0 41.73913031 33.39130406 75.13043437 75.13043437 75.13043531h517.56521813c41.73913031 0 75.13043437-33.39130406 75.13043437-75.13043531v-146.08695656l208.6956525 121.04347875c8.34782625 4.17391313 16.6956525 8.34782625 25.04347781 8.34782531s16.6956525-4.17391313 25.04347875-8.34782531c16.6956525-8.34782625 25.04347781-25.04347781 25.04347782-41.73913031V320c-4.17391313-16.6956525-12.52173937-33.39130406-25.04347782-41.73913031zM658.08695656 745.73913031c0 16.6956525-12.52173937 29.21739094-29.21739093 29.21739188H111.3043475c-16.6956525 0-29.21739094-12.52173937-29.21739094-29.21739188V278.26086969c0-16.6956525 12.52173937-29.21739094 29.21739094-29.21739188h517.56521813c16.6956525 0 29.21739094 12.52173937 29.21739093 29.21739188v467.47826062z m279.65217375-66.78260812l-229.56521718-133.56521813v-91.82608687l233.73913031-133.56521719-4.17391313 358.95652219z" fill="#606266" p-id="2503"></path></svg>